<?xml version="1.0" standalone="no"?>
<!DOCTYPE svg PUBLIC "-//W3C//DTD SVG 20010904//EN"
 "http://www.w3.org/TR/2001/REC-SVG-20010904/DTD/svg10.dtd">
<svg version="1.0" xmlns="http://www.w3.org/2000/svg"
 width="401.000000pt" height="401.000000pt" viewBox="0 0 401.000000 401.000000"
 preserveAspectRatio="xMidYMid meet">
<metadata>
Created by potrace 1.14, written by Peter Selinger 2001-2017
</metadata>
<g transform="translate(0.000000,401.000000) scale(0.100000,-0.100000)"
fill="#000000" stroke="none">
<path d="M1077 4001 c-44 -13 -63 -69 -71 -206 -8 -139 -20 -155 -125 -155
-42 0 -87 -6 -100 -13 -31 -15 -59 -54 -69 -92 -13 -55 -5 -316 11 -342 6 -9
2552 -11 2562 -2 3 4 8 74 10 155 3 139 2 153 -19 200 -29 64 -65 83 -165 85
-93 2 -101 10 -102 102 0 92 -5 152 -14 199 -14 73 62 68 -973 71 -513 1 -938
0 -945 -2z"/>
<path d="M928 3049 c-6 -4 -8 -34 -4 -75 3 -38 8 -107 11 -154 3 -47 8 -112
10 -145 6 -75 14 -189 20 -280 13 -173 16 -213 20 -265 3 -30 7 -84 10 -120
11 -163 16 -239 20 -290 6 -82 16 -217 20 -280 2 -30 6 -89 10 -130 3 -41 7
-102 10 -135 2 -33 7 -91 10 -130 3 -38 7 -97 9 -130 7 -97 19 -258 21 -290 2
-16 3 -49 4 -72 l1 -43 45 0 c25 0 44 -3 43 -7 -2 -7 10 -121 17 -167 2 -12 6
-48 10 -81 12 -124 26 -225 31 -240 5 -12 15 -10 57 12 147 74 292 206 381
346 124 195 184 380 221 677 3 25 6 86 8 135 l2 90 -78 1 c-85 1 -100 10 -111
69 -12 61 -20 62 -78 17 -29 -22 -71 -68 -93 -102 l-39 -60 -13 42 c-7 24 -14
72 -14 108 -2 121 39 218 131 308 34 34 59 66 58 78 -1 24 10 138 17 179 20
107 97 317 131 356 8 8 14 19 14 23 0 7 51 84 76 116 55 67 68 80 84 80 34 0
162 -176 215 -296 45 -101 79 -209 90 -289 3 -22 8 -51 10 -65 3 -14 5 -50 6
-80 2 -53 4 -57 55 -103 58 -52 106 -127 124 -197 21 -74 12 -202 -17 -253 -2
-4 -23 20 -45 53 -37 57 -134 144 -149 135 -3 -3 -9 -23 -13 -45 -10 -63 -29
-75 -113 -74 -45 0 -73 -4 -74 -10 -1 -6 -1 -45 0 -86 5 -325 110 -660 274
-870 98 -127 230 -235 349 -288 26 -11 50 -17 52 -14 3 4 7 35 11 67 4 33 8
71 10 85 2 14 7 52 11 85 3 33 8 67 9 76 4 19 17 113 20 149 2 14 3 28 4 33 1
4 19 7 41 7 25 0 41 5 41 13 1 6 3 30 4 52 1 22 5 72 9 110 3 39 8 106 11 150
3 44 7 107 10 140 5 59 9 113 20 270 3 44 8 105 10 135 3 30 7 93 10 140 3 47
7 103 10 125 2 22 7 87 10 145 4 58 8 121 10 140 2 19 6 82 10 140 3 58 8 121
10 140 2 19 7 78 10 130 3 52 8 115 10 140 2 25 7 88 10 140 4 52 8 115 10
140 2 25 7 90 10 145 4 55 9 107 10 117 2 10 -2 21 -8 25 -14 9 -2145 11
-2159 2z"/>
</g>
</svg>
